<?xml version="1.0" encoding="iso-8859-1"?>
<!-- Generator: Adobe Illustrator 18.0.0, SVG Export Plug-In . SVG Version: 6.00 Build 0)  -->
<!DOCTYPE svg PUBLIC "-//W3C//DTD SVG 1.1//EN" "http://www.w3.org/Graphics/SVG/1.1/DTD/svg11.dtd">
<svg xmlns="http://www.w3.org/2000/svg" xmlns:xlink="http://www.w3.org/1999/xlink" version="1.1" id="Capa_1" x="0px" y="0px" viewBox="0 0 268.344 268.344" style="enable-background:new 0 0 268.344 268.344;" xml:space="preserve" width="512px" height="512px">
<g>
	<path d="M263.183,34.024c-0.372-1.281-1.639-1.437-2.48-0.892c-0.006-1.08-0.701-2.116-2.109-2.059   c-82.346,3.31-164.182,2.89-246.555,1.205c-0.595-0.012-0.97,0.281-1.17,0.671c-0.231,0.027-0.444,0.136-0.492,0.426   C1.776,86.041-0.047,142.074,0.013,196.341c-0.018,0.104-0.017,0.187,0.001,0.289c0.014,11.38,0.105,22.687,0.239,33.863   c0.027,2.291,3.467,2.281,3.551,0c0.019-0.523,0.03-1.047,0.049-1.57c21.371-0.053,42.347,0.478,63.647,2.456   c0.599,0.056,0.746-0.973,0.143-1.059c-20.957-2.988-42.63-4.123-63.755-2.527c0.08-2.261,0.133-4.524,0.205-6.785   c3.506,0.037,7.008,0.062,10.516-0.07c0.825-0.031,0.826-1.252,0-1.283c-3.493-0.131-6.981-0.107-10.473-0.07   c0.068-2.163,0.119-4.326,0.181-6.488c2.641,0.162,5.245,0.006,7.848-0.626c0.784-0.19,0.435-1.301-0.326-1.183   c-2.49,0.386-4.98,0.5-7.482,0.392c0.056-1.974,0.103-3.949,0.157-5.923c0.065,0.016,0.107,0.072,0.183,0.062   c3.341-0.413,6.805-0.621,10.084-1.399c0.681-0.161,0.538-1.243-0.166-1.223c-3.357,0.095-6.746,0.784-10.068,1.247   c0.067-2.49,0.128-4.98,0.192-7.47c2.189-0.137,4.378-0.285,6.558-0.505c0.909-0.092,0.95-1.479,0-1.45   c-2.174,0.066-4.345,0.204-6.517,0.353c0.097-3.817,0.204-7.635,0.301-11.452c2.296,0.053,4.596,0.096,6.884-0.048   c0.765-0.048,0.766-1.142,0-1.19c-2.276-0.143-4.565-0.101-6.85-0.049c0.087-3.434,0.191-6.867,0.283-10.301   c2.619-0.31,5.225-0.305,7.885-0.2c0.789,0.031,0.999-1.286,0.19-1.406c-2.694-0.398-5.373-0.281-8.035,0.139   c0.065-2.412,0.143-4.825,0.212-7.237c2.497,0.542,5.109,0.869,7.637,0.588c0.962-0.107,1.017-1.559,0-1.543   c-2.591,0.04-5.056,0.006-7.597-0.397c0.083-2.899,0.214-5.797,0.305-8.695c1.991,0.057,3.982,0.102,5.97,0.04   c0.969-0.03,0.97-1.476,0-1.506c-1.971-0.062-3.945-0.018-5.92,0.038c0.134-4.207,0.294-8.414,0.443-12.621   c2.929-0.13,5.857-0.269,8.777-0.533c0.96-0.087,0.996-1.552,0-1.524c-2.912,0.081-5.818,0.286-8.723,0.501   c0.074-2.01,0.121-4.021,0.212-6.031c0.051-1.129,0.121-2.261,0.176-3.39c1.99,0.026,3.992-0.169,5.861-0.868   c0.601-0.225,0.585-1.319-0.166-1.224c-1.887,0.24-3.735,0.442-5.612,0.487c0.126-2.471,0.276-4.946,0.42-7.419   c2.893,0.055,5.887,0.275,8.728-0.205c0.825-0.139,0.826-1.528,0-1.667c-2.8-0.473-5.754-0.267-8.61-0.208   c0.478-7.98,1.026-15.971,1.565-23.966c2.495,0.04,4.981,0.066,7.476-0.133c0.824-0.066,0.826-1.217,0-1.283   c-2.461-0.196-4.913-0.173-7.372-0.134c0.201-2.991,0.389-5.983,0.581-8.974c2.925,0.039,5.848,0.065,8.775-0.056   c0.993-0.041,0.994-1.502,0-1.543c-2.891-0.12-5.778-0.095-8.668-0.057c0.238-3.752,0.462-7.505,0.668-11.256   c0.03,0.007,0.041,0.036,0.074,0.039c3.082,0.301,6.158,0.642,9.251,0.801c0.909,0.047,0.877-1.305,0-1.395   c-3.076-0.313-6.164-0.444-9.251-0.615c-0.006,0-0.008,0.005-0.014,0.005c0.213-3.951,0.361-7.899,0.517-11.847   c2.914,0.118,5.828,0.247,8.745,0.122c1.001-0.043,0.984-1.467,0-1.543c-2.887-0.225-5.78-0.202-8.674-0.186   c0.15-4.031,0.256-8.061,0.33-12.088c13.427-0.151,26.699,0.866,40.044,2.31c1.084,0.117,1.344-1.735,0.259-1.917   c-13.319-2.236-26.793-2.835-40.28-2.578c0.028-2.066,0.071-4.132,0.067-6.196c0.125,0.045,0.245,0.097,0.395,0.108   c81.693,6.134,164.814,5.456,246.555,0.393c0.584-0.036,1.02-0.279,1.363-0.6c0.003,0.019-0.004,0.034,0,0.053   c6.075,32.631,3.109,67.995,3.496,101.101c0.372,31.795,0.315,63.659,1.87,95.424c-0.364-0.346-0.851-0.585-1.51-0.573   c-86.6,1.61-173.216,0.484-259.806,1.902c-1.727,0.028-1.72,2.613,0,2.677c86.472,3.242,173.31,1.482,259.806-0.006   c1.485-0.038,2.217-1.221,2.202-2.374c0.701,0.349,1.704,0.075,1.732-0.962c0.937-34.563,0.019-69.208-0.356-103.775   C267.062,98.159,271.658,63.184,263.183,34.024z" fill="#FFFFFF"/>
	<path d="M23.811,51.196c-1.262,17.133-2.36,34.319-3.367,51.521c-0.017,0.002-0.026-0.011-0.043-0.007   c-3.23,0.626-6.367,0.743-9.564-0.125c-0.88-0.239-1.245,1.101-0.376,1.362c3.266,0.982,6.654,1.152,9.909,0.111   c-2.294,39.444-3.918,78.997-4.529,118.382c-0.025,1.625,2.417,1.603,2.51,0c3.309-56.967,5.502-114.206,7.226-171.244   C25.612,50.05,23.894,50.074,23.811,51.196z" fill="#FFFFFF"/>
	<path d="M244.822,47.964c-0.137-1.053-1.439-1.249-1.886-0.55c-0.103-0.008-0.186-0.045-0.301-0.034   c-35.93,3.235-71.905,5.342-107.985,5.735c-35.859,0.39-72.391-4.512-108.072-2.568c-0.654,0.036-0.877,1.062-0.163,1.205   c33.454,6.703,70.408,4.692,104.372,4.516c37.343-0.193,74.663-2.026,111.848-5.449c0.095-0.009,0.162-0.054,0.249-0.074   c2.945,56.348,5.736,112.143,3.978,168.613c-4.048,0.033-8.1,0.064-12.15,0.096c0.651-5.059,2.297-13.811-1.537-17.087   c-1.413-1.208-3.933-0.85-5.546-0.91c-6.159-0.23-12.392,0.013-18.556,0.02c-5.566,0.006-11.134-0.004-16.7,0.062   c-1.333,0.016-5.876-0.542-7.383,0.955c-3.684,3.659-1.521,12.389-0.986,17.371c-55.203,0.485-110.46,1.229-165.547,3.414   c-1.418,0.056-1.431,2.199,0,2.212c76.257,0.701,152.756-1.357,228.997-3.051c0.149-0.003,0.265-0.053,0.392-0.088   c0.892,0.259,2.051-0.211,2.103-1.427C252.42,163.562,252.255,104.975,244.822,47.964z M188.663,204.942   c1.496-0.882,9.358,0.056,11.133,0.063c3.092,0.013,6.185,0.015,9.277,0.018c5.485,0.005,13.333-1.473,18.556,0.017   c5.494,1.568,3.846,8.975,3.8,14.439c-15.125,0.118-30.257,0.235-45.395,0.366C185.96,215.255,184.701,207.279,188.663,204.942z" fill="#FFFFFF"/>
	<path d="M66.444,110.786c0.258-1.57-2.041-2.284-2.438-0.672c-2.264,9.18-4.834,22.139-1.382,31.188   c0.576,1.509,2.525,1.188,2.721-0.368c0.585-4.654-0.458-9.499-0.432-14.202C64.943,121.349,65.572,116.096,66.444,110.786z" fill="#FFFFFF"/>
	<path d="M100.551,126.568c-1.67-0.33-3.376-0.562-5.096-0.755c0.421-1.997,0.755-3.979,0.848-5.897   c0.058-1.215-1.9-1.852-2.408-0.652c-0.817,1.929-1.407,4.046-1.924,6.211c-3.161-0.257-6.337-0.432-9.429-0.729   c-1.842-0.177-1.776,2.617,0,2.845c2.859,0.366,5.76,0.86,8.667,1.287c-0.645,3.413-1.112,6.878-1.663,10.056   c-0.235,1.355,1.706,1.949,2.098,0.578c0.92-3.221,2.055-6.696,2.987-10.193c1.836,0.217,3.67,0.394,5.488,0.444   C101.918,129.813,102.376,126.928,100.551,126.568z" fill="#FFFFFF"/>
	<path d="M123.909,121.82c-0.426-5.952-0.249-11.869,0.244-17.812c0.122-1.475-2.384-1.839-2.611-0.354   c-1.729,11.295-2.75,25.406,1.691,36.218c0.616,1.5,3.226,1.526,3.104-0.42C125.969,133.533,124.335,127.775,123.909,121.82z" fill="#FFFFFF"/>
	<path d="M153.344,126.634c-2.175-0.393-4.403,0.083-6.621-0.033c-2.668-0.14-5.258-0.676-7.809-1.457   c-1.663-0.509-2.32,2.015-0.712,2.582c4.19,1.476,10.836,3.334,15.141,1.544C154.431,128.817,154.837,126.903,153.344,126.634z" fill="#FFFFFF"/>
	<path d="M158.264,117.871c-6.788-1.725-14.309-1.765-21.268-2.488c-1.331-0.138-1.656,2.154-0.319,2.356   c6.919,1.044,14.206,2.895,21.208,2.927C159.476,120.672,159.836,118.271,158.264,117.871z" fill="#FFFFFF"/>
	<path d="M196.307,136.408c-5.325,0.133-10.673,0.924-15.984,1.616c3.101-7.525,5.891-17.084,3.051-24.516   c-2.216-5.798-10.151-9.239-14.565-3.654c-1.109,1.403,0.784,3.414,2.012,2.012c4.613-5.273,9.473,1.557,9.865,5.958   c0.2,2.251-0.14,4.629-0.523,6.823c-0.898,5.145-2.582,10.056-4.795,14.782c-0.572,1.221,0.074,3.209,1.737,3.027   c6.542-0.714,13.246-1.072,19.7-2.377C198.877,139.659,198.396,136.356,196.307,136.408z" fill="#FFFFFF"/>
</g>
<g>
</g>
<g>
</g>
<g>
</g>
<g>
</g>
<g>
</g>
<g>
</g>
<g>
</g>
<g>
</g>
<g>
</g>
<g>
</g>
<g>
</g>
<g>
</g>
<g>
</g>
<g>
</g>
<g>
</g>
</svg>
